<svg xmlns="http://www.w3.org/2000/svg" viewBox="0 0 210 297" fill="none" aria-hidden="true">
  <path fill="#C5A556" d="M 97.498958,222.34712 C 80.271739,220.55976 65.076481,213.41254 52.981318,201.40785 41.758033,190.26852 34.990747,176.81906 32.782146,161.26354 c -0.608687,-4.28708 -0.716686,-11.04566 -0.238878,-14.94896 0.743063,-6.07022 2.808821,-13.44097 5.417746,-19.33085 3.788404,-8.55266 9.358931,-16.64365 15.65595,-22.7397 4.707027,-4.556804 6.211702,-5.573909 2.326444,-1.57259 -6.155403,6.33927 -10.896077,13.14293 -14.753744,21.17407 -3.902031,8.12351 -5.781099,14.71979 -6.645673,23.32897 l -0.152781,1.52135 h 1.081704 1.081703 l -0.173146,1.65365 c -0.241653,2.30791 0.302216,8.91551 1.081019,13.13357 0.924486,5.00709 3.391304,12.44674 5.545289,16.72399 8.147111,16.178 23.141863,29.12079 39.939096,34.47361 8.372857,2.6682 14.177478,3.41478 20.964155,2.69638 10.46408,-1.10769 20.96493,-5.16404 23.91661,-9.23872 0.41792,-0.57693 0.75986,-1.34752 0.75986,-1.71243 0,-0.36491 -0.61292,-1.62697 -1.36205,-2.80457 -1.98903,-3.12668 -2.25209,-3.63826 -2.82552,-5.49481 -1.04686,-3.38933 -0.98585,-6.50139 0.20023,-10.21415 0.61481,-1.92451 2.1639,-5.27573 2.77871,-6.01131 l 0.44228,-0.52917 -0.13367,0.52917 c -1.05311,4.16886 -1.15057,7.98526 -0.30408,11.90625 0.40227,1.8633 2.98479,7.494 4.60476,10.03982 0.45797,0.71971 0.83267,1.62583 0.83267,2.0136 0,2.94057 -7.40064,7.81998 -16.46265,10.85419 -1.26909,0.42493 -2.51925,0.78199 -2.77812,0.79348 -0.25888,0.0115 -0.32707,0.0792 -0.15155,0.15048 0.71278,0.28943 9.70982,-1.72572 13.57149,-3.03973 14.62173,-4.97534 27.00642,-14.60038 35.59797,-27.66577 1.8835,-2.86427 4.91386,-8.44992 5.61188,-10.34399 2.35656,-6.39442 3.19823,-9.35114 4.06709,-14.2875 0.60876,-3.45862 1.1161,-10.59752 0.87905,-12.36927 l -0.16815,-1.25677 h 0.95087 0.95087 l -0.005,-1.52135 c -0.006,-1.95411 -0.63602,-6.37986 -1.32278,-9.29562 -1.8021,-7.65116 -5.41629,-15.70778 -10.45171,-23.29859 -3.63135,-5.47422 -5.22025,-7.47233 -9.25504,-11.63869 -4.24412,-4.382505 -3.59806,-4.15565 1.16739,0.40992 8.43869,8.08473 14.49935,17.33851 18.43418,28.14642 2.95921,8.12814 3.67681,12.25599 3.67968,21.16666 0.002,6.56044 -0.14882,8.25793 -1.22325,13.75833 -1.91204,9.78841 -6.97581,20.39507 -13.89475,29.10417 -2.29279,2.88601 -8.04758,8.64185 -10.94138,10.94335 -10.1802,8.09654 -21.89603,13.19042 -35.45416,15.41495 -2.42722,0.39825 -15.52078,0.73182 -18.123962,0.46174 z m -16.743938,-13.99504 0.131909,-2.10938 2.003857,-4.10104 c 3.122895,-6.39123 3.310609,-8.98493 1.167988,-16.13841 -0.370293,-1.23629 -0.644422,-2.27663 -0.609175,-2.31188 0.164893,-0.16489 3.373055,6.63782 3.959614,8.39613 0.88554,2.65454 1.327272,5.34363 1.12282,6.83527 -0.518193,3.78063 -1.651201,5.68392 -5.561383,9.34231 l -2.347538,2.19638 z m 23.30032,-16.34032 -0.56244,-9.84614 0.49754,-0.5106 0.49754,-0.5106 0.67268,0.30649 0.67267,0.30649 v 1.06074 c 0,1.37766 -1.05914,18.88336 -1.14786,18.97208 -0.0372,0.0372 -0.32078,-4.36308 -0.63013,-9.77846 z m -37.548736,-18.9764 -0.0361,-3.70203 h 0.857625 0.857626 l 1.109855,2.38874 c 0.610421,1.31381 1.199586,2.33328 1.309256,2.2655 0.10967,-0.0678 0.718689,-1.14271 1.353376,-2.38874 l 1.153976,-2.2655 h 0.750142 0.750142 v 3.70417 3.70416 l -0.595312,5.8e-4 -0.595313,5.8e-4 0.06923,-2.71256 0.06923,-2.71255 -0.414073,0.52916 c -0.22774,0.29104 -0.794673,1.32614 -1.259851,2.30022 -0.632126,1.32365 -0.984084,1.7748 -1.393277,1.78593 l -0.547497,0.0149 -0.883821,-2.05052 c -0.486102,-1.12778 -0.983869,-2.16363 -1.106149,-2.30187 -0.12228,-0.13825 -0.222327,0.96308 -0.222327,2.44739 v 2.69875 l -0.595313,-0.002 -0.595312,-0.002 z m 13.132979,3.59748 c 0,-0.11166 2.328605,-5.56312 2.902617,-6.79527 0.552541,-1.18606 1.422633,-0.73381 2.261746,1.17559 0.393365,0.8951 0.890334,1.98465 1.104376,2.42121 0.214041,0.43656 0.615806,1.3593 0.892811,2.05052 l 0.503645,1.25677 h -0.608593 c -0.426554,0 -0.73168,-0.25811 -1.020095,-0.86292 l -0.411502,-0.86293 -1.919928,0.029 -1.919929,0.029 -0.350635,0.83392 c -0.231238,0.54995 -0.535174,0.83391 -0.892574,0.83391 -0.298066,0 -0.541939,-0.049 -0.541939,-0.10882 z m 4.882874,-3.36831 c -0.238093,-0.75016 -1.165483,-2.78622 -1.172897,-2.57506 -0.0032,0.091 -0.301965,0.83517 -0.663932,1.65365 l -0.658122,1.48813 h 1.33741 1.33741 z m 8.147855,2.91753 c -0.910163,-0.58289 -0.973921,-0.70336 -0.64567,-1.22006 0.156234,-0.24592 0.482142,-0.18789 1.346541,0.23978 1.418774,0.70195 2.540275,0.45027 2.540275,-0.57007 v -0.642 l -1.428937,-0.54531 c -0.801795,-0.30598 -1.66618,-0.86307 -1.969492,-1.26932 l -0.540555,-0.72402 0.251155,-0.71415 c 0.383974,-1.09183 1.736225,-1.76301 3.130684,-1.5539 1.449122,0.21731 2.100392,0.67137 1.860319,1.29699 -0.117155,0.3053 -0.331858,0.41012 -0.609712,0.29767 -0.934135,-0.37804 -2.419095,-0.44595 -2.802037,-0.12814 -0.509217,0.42261 -0.112154,1.22826 0.719232,1.45934 3.000317,0.8339 3.984285,2.52645 2.295085,3.94782 -1.046613,0.88066 -2.880914,0.93612 -4.146888,0.12537 z m 10.451038,0.0944 c -0.77088,-0.47795 -0.86793,-0.75544 -0.47913,-1.36988 l 0.24037,-0.37986 0.39139,0.32483 c 1.14865,0.9533 3.3531,0.82995 3.3531,-0.18762 0,-0.63443 -0.38473,-0.9257 -1.7292,-1.30916 -1.39069,-0.39664 -2.23955,-1.20532 -2.23955,-2.13355 0,-1.62863 2.35782,-2.61157 4.30894,-1.79634 1.01593,0.42448 1.12625,0.59549 0.75829,1.17546 -0.16306,0.25701 -0.39438,0.2733 -0.93922,0.0662 -0.9548,-0.36301 -2.09587,-0.34905 -2.47521,0.0303 -0.50299,0.50299 0.0786,1.17962 1.31307,1.52771 1.32848,0.37459 1.85958,0.729 2.28258,1.52322 0.47584,0.89341 0.3735,1.38146 -0.46559,2.22056 l -0.7734,0.77339 -1.40942,-0.007 c -0.85625,-0.004 -1.69498,-0.18409 -2.13702,-0.45815 z m 9.70378,0.002 c 0.0816,-0.25466 0.78608,-1.89177 1.56559,-3.63802 l 1.41729,-3.175 0.8335,-0.0829 c 0.55138,-0.0548 0.83598,0.0347 0.84084,0.26459 0.004,0.19112 0.64609,1.86554 1.42677,3.72093 l 1.41941,3.37343 h -0.58401 c -0.40694,0 -0.7179,-0.28077 -1.02561,-0.92604 l -0.4416,-0.92604 h -1.83924 -1.83923 l -0.33487,0.92604 c -0.25425,0.70313 -0.48558,0.92604 -0.96099,0.92604 -0.47643,0 -0.59068,-0.11071 -0.47785,-0.46302 z m 4.76152,-3.04161 c -0.10373,-0.32681 -0.39613,-1.07095 -0.64979,-1.65364 l -0.46118,-1.05943 -0.27106,0.66145 c -0.14908,0.36381 -0.46161,1.10795 -0.69452,1.65365 l -0.42345,0.99219 h 1.3443 1.34429 z m 8.30393,2.48889 -1.08894,-1.01575 -0.10617,-1.43165 -0.10618,-1.43165 0.55095,-0.87789 c 1.09347,-1.74235 4.01712,-2.36147 5.76125,-1.22003 l 0.5942,0.38887 -0.31426,0.50322 -0.31427,0.50322 -0.53724,-0.3763 c -0.72361,-0.50683 -2.54,-0.47647 -3.299,0.0552 -0.33879,0.2373 -0.78743,0.84177 -0.99697,1.34328 l -0.38099,0.91183 0.47508,0.9681 c 0.65322,1.33111 1.51426,1.75947 3.06823,1.52644 l 1.24331,-0.18645 v -1.17441 -1.17441 h 0.52917 0.52917 v 1.42506 1.42506 l -0.89989,0.42702 c -0.49493,0.23486 -1.51157,0.42702 -2.2592,0.42702 h -1.35932 z m 11.48705,-2.75457 0.0734,-3.77031 1.85209,-0.0814 c 2.55021,-0.11213 3.57187,0.10378 3.57187,0.75488 v 0.51717 h -2.11667 -2.11666 v 0.92605 0.92604 h 1.69148 c 1.30213,0 1.72865,0.0968 1.85294,0.42075 0.27748,0.7231 -0.0823,0.90216 -1.81246,0.90216 h -1.67638 l -0.10093,1.05834 -0.10093,1.05833 h 2.18981 2.1898 v 0.52917 0.52916 h -2.78539 -2.78539 z m -66.403933,-9.91026 c -0.327852,-0.0631 -0.999575,-0.4953 -1.492718,-0.96039 -1.434121,-1.35255 -1.747646,-2.88447 -1.747646,-8.5392 v -4.82787 l -0.415774,-0.41577 c -0.228676,-0.22868 -0.704926,-0.41578 -1.058333,-0.41578 -0.353408,0 -0.64256,-0.12337 -0.64256,-0.27416 0,-0.1756 0.927464,-0.24694 2.579688,-0.19844 l 2.579687,0.0757 0.06259,5.68854 c 0.07328,6.66005 0.178563,7.66817 0.896074,8.58033 l 0.53495,0.68008 h 1.283413 c 0.992669,0 1.466696,-0.15422 2.092466,-0.68077 1.228699,-1.03388 1.454762,-2.25668 1.468395,-7.94271 0.01304,-5.43879 -0.09793,-5.9286 -1.343202,-5.9286 -0.345984,0 -0.629062,-0.11906 -0.629062,-0.26458 0,-0.15782 1.014236,-0.26459 2.513542,-0.26459 h 2.513542 v 7.10275 7.10274 l 0.483854,0.43788 c 0.26612,0.24084 0.808928,0.43788 1.20624,0.43788 0.414216,0 0.652627,0.11288 0.558864,0.26459 -0.08994,0.14552 -1.214171,0.26458 -2.498298,0.26458 h -2.334776 l -0.159538,-0.59531 c -0.08775,-0.32742 -0.163778,-1.01203 -0.168961,-1.52136 l -0.0094,-0.92604 -0.51442,1.13342 c -0.792769,1.74669 -3.018299,2.51463 -5.758594,1.98705 z m 32.139793,-0.2083 c -1.7294,-0.47563 -2.97468,-1.4953 -3.818882,-3.12701 l -0.710178,-1.37266 -0.103929,-2.77812 -0.103928,-2.77813 0.557392,-1.48127 c 0.645832,-1.71629 2.059295,-3.25278 3.428835,-3.72727 0.52634,-0.18236 1.74017,-0.32875 2.69739,-0.32532 l 1.74039,0.006 1.21888,0.71431 c 1.96746,1.15301 2.83632,2.84849 2.83948,5.54092 l 10e-4,1.25677 h -4.8005 -4.80049 l 0.17544,1.88769 c 0.26646,2.86696 0.67151,4.13589 1.65212,5.17563 l 0.88506,0.93844 1.55979,-0.11282 c 1.94387,-0.14061 2.84651,-0.71461 3.52078,-2.2389 l 0.52396,-1.18449 0.37733,0.31316 c 0.61219,0.50808 0.43646,1.3005 -0.49497,2.23193 -1.40812,1.40812 -3.69359,1.79023 -6.34545,1.0609 z m 4.71634,-10.51409 c -0.33084,-3.3575 -1.16768,-4.7012 -2.92786,-4.7012 -2.03538,0 -3.02275,1.46499 -3.43272,5.09323 l -0.17191,1.52135 h 3.36052 3.36051 z m 27.28859,10.52588 c -2.61599,-0.93298 -3.61201,-3.65016 -2.22709,-6.07557 0.87087,-1.52513 2.14944,-2.07171 5.57847,-2.38476 l 2.88399,-0.26328 -0.12558,-2.40091 c -0.11922,-2.2792 -0.45557,-3.46657 -1.1048,-3.90007 -0.16011,-0.10692 -0.85841,-0.19621 -1.55178,-0.19844 l -1.26066,-0.004 -0.52429,0.85989 c -0.30481,0.49993 -0.5247,1.33063 -0.52527,1.98438 l -9.9e-4,1.12448 h -0.79375 c -0.97532,0 -1.85209,-0.82377 -1.85209,-1.74015 0,-1.1698 1.22263,-2.09984 3.26773,-2.48572 3.12949,-0.59049 5.37522,-0.0289 6.56714,1.64219 l 0.61618,0.86389 0.13229,6.05725 0.13229,6.05725 0.39687,0.20751 c 0.21828,0.11413 0.635,0.30511 0.92605,0.4244 0.35114,0.14392 -0.21624,0.24313 -1.68652,0.2949 -1.21862,0.0429 -2.25764,0.036 -2.30894,-0.0152 -0.0513,-0.0513 -0.1258,-0.65108 -0.16557,-1.33284 -0.0398,-0.68177 -0.13184,-1.23759 -0.2046,-1.23516 -0.0728,0.002 -0.31089,0.3888 -0.52917,0.85859 -0.47795,1.02867 -2.33371,2.05006 -3.69408,2.03318 -0.51487,-0.006 -1.39049,-0.17366 -1.94583,-0.37172 z m 4.53753,-0.85384 c 1.01358,-0.64268 1.44812,-2.0666 1.47499,-4.8333 l 0.0243,-2.49861 -1.45258,0.0742 c -1.69547,0.0866 -2.83582,0.51393 -3.57054,1.33802 -0.64845,0.72731 -0.90443,4.08901 -0.40346,5.29846 0.53586,1.29368 2.4014,1.58877 3.92732,0.62123 z m -94.246547,0.67059 c 0.600433,-0.13494 1.275568,-0.44961 1.500301,-0.69927 0.224733,-0.24967 1.201317,-2.65659 2.170187,-5.34873 3.331706,-9.25759 4.895108,-13.73193 4.895108,-14.00943 0,-0.15294 0.386953,-0.27678 0.859896,-0.2752 l 0.859896,0.003 0.74314,2.04765 c 0.408727,1.12621 0.907119,2.46437 1.107538,2.97369 0.200418,0.50933 1.46017,3.90261 2.799448,7.54063 1.339278,3.63802 2.615511,6.82294 2.836073,7.0776 0.220563,0.25466 0.6732,0.46302 1.00586,0.46302 0.33266,0 0.678421,0.11907 0.768358,0.26459 0.106751,0.17272 -1.33456,0.25378 -4.151573,0.23346 -3.256932,-0.0235 -3.992209,-0.0851 -2.998398,-0.25122 2.016213,-0.33704 2.324559,-1.10532 1.320229,-3.28953 -0.200738,-0.43657 -0.61683,-1.47836 -0.924649,-2.31511 l -0.559671,-1.5213 h -3.917295 -3.917295 l -0.810769,2.3151 c -0.445923,1.27331 -0.879998,2.5664 -0.964612,2.87354 -0.240135,0.87167 0.605327,1.64081 2.107366,1.91713 l 1.322917,0.24338 -3.571876,0.001 -3.571875,0.001 z m 12.00518,-7.569 c 0,-0.55984 -3.591427,-10.33688 -3.738146,-10.17645 -0.09461,0.10344 -0.534832,1.25964 -0.978279,2.56933 -0.443447,1.30968 -1.230536,3.54801 -1.749088,4.97406 -0.518551,1.42605 -0.942821,2.64644 -0.942821,2.71198 0,0.0655 1.666875,0.11916 3.704167,0.11916 2.037292,0 3.704167,-0.0891 3.704167,-0.19808 z m 26.722917,7.60642 c 0,-0.14552 0.297656,-0.26459 0.661458,-0.26459 0.363802,0 0.899583,-0.23812 1.190625,-0.52916 l 0.529167,-0.52917 v -6.15884 -6.15883 l -0.411878,-0.58804 c -0.234524,-0.33483 -0.690241,-0.58804 -1.058334,-0.58804 -0.35555,0 -0.646455,-0.11906 -0.646455,-0.26458 0,-0.15782 1.014236,-0.26459 2.513542,-0.26459 h 2.513541 l 9.89e-4,1.25678 9.89e-4,1.25677 0.515547,-0.84552 c 0.79675,-1.30671 1.739098,-1.7915 3.482383,-1.7915 h 1.523098 l 0.678081,0.63703 c 1.296235,1.21775 0.635132,3.11436 -1.240149,3.5578 l -0.727604,0.17206 v -0.69266 c 0,-0.38096 -0.19216,-1.0976 -0.427022,-1.59254 l -0.427022,-0.89988 h -1.006607 -1.006607 l -0.613541,0.99219 -0.61354,0.99218 -0.09895,5.46065 -0.09895,5.46065 0.558623,0.55862 c 0.355633,0.35563 0.895124,0.55862 1.484664,0.55862 0.509323,0 0.926042,0.11907 0.926042,0.26459 0,0.16501 -1.543403,0.26458 -4.101042,0.26458 -2.557639,0 -4.101041,-0.0996 -4.101041,-0.26458 z m 28.575,0.0338 c 0,-0.12692 0.47249,-0.30632 1.04998,-0.39866 0.64319,-0.10285 1.15573,-0.36548 1.32292,-0.67788 0.17322,-0.32367 0.26986,-3.92361 0.26452,-9.85394 l -0.008,-9.34396 -0.34842,-0.45883 c -0.19163,-0.25236 -0.81292,-0.56783 -1.38065,-0.70103 l -1.03222,-0.24219 2.83537,-0.0266 2.83538,-0.0266 0.075,10.34028 0.075,10.34027 0.51359,0.37535 c 0.28248,0.20645 0.841,0.37535 1.24116,0.37535 0.40016,0 0.80115,0.11907 0.89109,0.26459 0.10642,0.17219 -1.32017,0.26458 -4.08543,0.26458 -2.33692,0 -4.24895,-0.10384 -4.24895,-0.23077 z m 9.525,-0.0338 c 0,-0.14552 0.35719,-0.26459 0.79375,-0.26459 0.44097,0 1.02894,-0.23518 1.32292,-0.52916 l 0.52916,-0.52917 v -6.30899 -6.30899 l -0.48385,-0.43789 c -0.26612,-0.24083 -0.65307,-0.4397 -0.8599,-0.44193 -0.20682,-0.002 -0.55463,-0.11947 -0.77291,-0.26053 -0.27055,-0.17484 0.46638,-0.25777 2.3151,-0.26053 l 2.71198,-0.004 v 7.01146 7.01146 l 0.52917,0.52917 c 0.29398,0.29398 0.88194,0.52916 1.32291,0.52916 0.43657,0 0.79375,0.11907 0.79375,0.26459 0,0.16501 -1.5434,0.26458 -4.10104,0.26458 -2.55764,0 -4.10104,-0.0996 -4.10104,-0.26458 z m 25.79688,0 c 0.0899,-0.14552 0.45415,-0.26459 0.80936,-0.26459 0.35521,0 0.88397,-0.23812 1.17501,-0.52916 l 0.52917,-0.52917 v -6.15884 -6.15883 l -0.41188,-0.58804 c -0.23452,-0.33483 -0.69024,-0.58804 -1.05833,-0.58804 -0.35555,0 -0.64646,-0.11906 -0.64646,-0.26458 0,-0.15782 1.01424,-0.26459 2.51354,-0.26459 h 2.51354 l 0.0106,1.25678 0.0106,1.25677 0.38206,-0.70342 c 0.65325,-1.20272 2.11422,-1.90964 3.94159,-1.9072 1.66665,0.002 2.4936,0.29451 3.54962,1.25462 1.20866,1.09889 1.36596,1.97475 1.36596,7.60602 v 5.25935 l 0.52917,0.52917 c 0.29104,0.29104 0.82682,0.52916 1.19062,0.52916 0.3638,0 0.66146,0.11907 0.66146,0.26459 0,0.15875 -1.05833,0.26458 -2.64583,0.26458 h -2.64584 v -6.29394 -6.29393 l -0.59531,-1.17617 -0.59531,-1.17618 -0.90986,-0.17961 c -1.98313,-0.39147 -3.58144,0.80077 -4.0037,2.98653 -0.31735,1.64265 -0.29505,9.16727 0.0306,10.33996 l 0.2735,0.98479 1.04794,0.28218 c 0.57636,0.1552 1.04794,0.33713 1.04794,0.40428 0,0.0671 -1.8525,0.12209 -4.11666,0.12209 -2.67706,0 -4.05947,-0.0925 -3.95313,-0.26458 z m -22.6424,-18.41327 c -0.19244,-0.23188 -0.3499,-0.81606 -0.3499,-1.29819 0,-1.05493 0.49327,-1.71979 1.27594,-1.71979 0.83247,0 1.21115,0.50007 1.21115,1.59941 0,1.51358 -1.32722,2.39453 -2.13719,1.41857 z m -23.5376,-0.78132 -0.33959,-0.40917 0.30719,-1.33081 c 0.16895,-0.73194 0.32143,-2.12539 0.33884,-3.09655 l 0.0316,-1.76576 0.31503,1.98438 c 0.17327,1.0914 0.47904,2.42654 0.67949,2.96697 l 0.36446,0.9826 -0.48756,0.53876 c -0.58494,0.64634 -0.76466,0.6656 -1.20951,0.12958 z m 39.62878,-3.17356 c -0.3312,-5.28238 -2.98281,-9.29642 -7.27271,-11.00949 l -1.52191,-0.60774 -5.42396,-0.0429 c -7.59814,-0.0602 -10.55452,-0.84388 -13.63597,-3.61484 -2.28958,-2.05888 -3.83514,-5.7782 -3.81775,-9.18725 l 0.009,-1.72063 0.86327,2.24896 c 1.83986,4.79315 4.09594,7.1081 8.37959,8.59826 l 1.45521,0.50623 5.92139,0.0634 c 6.43398,0.0689 7.76925,0.24885 10.02255,1.35066 4.37448,2.13901 6.80323,7.36727 5.90519,12.71182 -0.53457,3.18139 -0.7191,3.3283 -0.88368,0.70354 z m -76.230716,-0.45433 c -0.8777,-5.58015 1.106743,-10.31626 5.19684,-12.40288 2.332599,-1.19 3.248965,-1.3256 8.793424,-1.30124 5.748108,0.0253 7.005333,-0.1645 9.823868,-1.48281 3.05429,-1.42858 6.079969,-5.25155 7.100922,-8.97207 l 0.358102,-1.30498 0.01719,1.5875 c 0.0577,5.32842 -3.338694,9.80566 -8.897932,11.72955 -2.289462,0.79232 -5.645196,1.17456 -8.534442,0.97213 -4.324556,-0.303 -7.872255,0.83687 -10.088771,3.24151 -1.397372,1.51597 -2.782959,4.59208 -3.221648,7.1523 l -0.349536,2.03993 z m -26.149346,-1.17704 c 0.297067,-0.41719 2.127663,-2.4141 4.067991,-4.43759 1.940327,-2.02348 3.349275,-3.57565 3.130993,-3.44926 -0.963002,0.55757 -3.767984,2.81397 -6.035087,4.85477 -1.354767,1.21953 -2.510818,2.16972 -2.569002,2.11154 -0.202707,-0.20271 0.668365,-3.41502 1.226532,-4.52317 0.807988,-1.60412 2.148932,-3.17209 3.663843,-4.28414 1.477064,-1.08426 5.150319,-2.46494 7.205493,-2.70834 l 1.355057,-0.16049 -0.160821,1.7222 c -0.199339,2.13467 -0.740423,3.55746 -2.194252,5.76983 -2.056263,3.12913 -5.211018,5.13157 -8.941003,5.67519 l -1.289865,0.18799 z m 128.378152,0.0868 c -4.65773,-1.71819 -7.72228,-5.18329 -8.86303,-10.02147 -0.57291,-2.42986 -0.54568,-2.57828 0.47307,-2.57828 1.40142,0 3.87485,0.72869 6.00526,1.76921 3.25608,1.5903 5.51108,4.2737 6.29526,7.49121 0.68498,2.81049 0.64518,2.88631 -0.7498,1.42814 -0.94635,-0.98922 -7.29282,-6.19064 -7.55346,-6.19064 -0.0815,0 1.34053,1.57757 3.15998,3.50572 1.81945,1.92816 3.56415,3.83316 3.87711,4.23334 l 0.56902,0.7276 -1.14368,-0.0116 c -0.62903,-0.006 -1.56041,-0.16534 -2.06973,-0.35322 z M 29.471052,134.29113 c -1.614459,-1.41229 -3.085641,-4.06235 -3.697112,-6.65964 -0.668582,-2.83989 -0.128853,-10.68566 0.735092,-10.68566 0.525414,0 2.579152,1.52742 4.060932,3.02023 1.913383,1.92762 3.39132,4.76316 3.83781,7.36315 l 0.306435,1.78442 -0.436984,1.91975 c -0.240342,1.05586 -0.657001,2.33482 -0.92591,2.84214 l -0.488925,0.9224 -0.303956,-1.18698 c -1.110981,-4.33852 -3.742714,-11.34902 -4.26752,-11.36796 -0.08349,-0.003 0.116593,0.79819 0.44462,1.78046 1.605226,4.80679 2.951031,11.44323 2.320576,11.44323 -0.132683,0 -0.845959,-0.529 -1.585058,-1.17554 z m 148.916258,-0.6104 c 0.27197,-2.09085 1.58269,-7.4671 2.35926,-9.67712 0.29786,-0.84765 0.48825,-1.59449 0.4231,-1.65964 -0.34075,-0.34074 -3.84077,9.14937 -4.32364,11.72329 l -0.17687,0.94282 -0.63871,-1.5146 c -0.35128,-0.83302 -0.76952,-2.16597 -0.9294,-2.96211 -0.64555,-3.2144 0.92785,-7.4986 3.91798,-10.6683 1.56841,-1.66259 3.8499,-3.23017 4.19663,-2.88344 0.40449,0.40449 0.92564,4.09803 0.92975,6.58934 0.005,3.17911 -0.40002,5.05449 -1.61034,7.45213 -0.81855,1.62153 -3.38443,4.44357 -4.04023,4.44357 H 178.155 Z M 46.169791,122.15134 45.111457,121.8127 46.302082,121.051 c 0.654844,-0.41894 3.036094,-1.70642 5.291667,-2.86108 2.296268,-1.17549 3.693512,-2.01516 3.175,-1.908 -1.253416,0.25904 -5.512104,1.84341 -7.908616,2.94227 -1.07552,0.49315 -2.001312,0.89664 -2.057315,0.89664 -0.200814,0 0.79169,-1.74412 1.712823,-3.00993 1.896451,-2.60609 5.772257,-4.34036 10.237483,-4.58087 2.312192,-0.12454 5.515068,0.18538 5.90066,0.57098 0.304488,0.30448 -1.832068,3.33494 -3.587533,5.0885 -1.479198,1.47758 -2.451458,2.17617 -4.233334,3.04172 l -2.313126,1.12361 -2.645833,0.0676 c -1.610185,0.0411 -3.060093,-0.065 -3.704167,-0.27107 z m 110.158519,-0.16779 c -2.02841,-0.63777 -4.46633,-2.16186 -6.07945,-3.80062 -1.28724,-1.3077 -3.60745,-4.82711 -3.35125,-5.08332 0.38091,-0.38091 3.59629,-0.69433 5.89927,-0.57504 4.03533,0.20904 8.11629,1.9019 10.00988,4.15231 0.82762,0.98357 1.86572,2.90133 1.67419,3.09286 -0.0697,0.0697 -1.59609,-0.46563 -3.39189,-1.1897 -2.7799,-1.12087 -4.05282,-1.55798 -6.83698,-2.34777 -0.21828,-0.0619 1.62719,0.93707 4.10105,2.21999 4.711,2.44306 5.68854,3.00814 5.68854,3.28831 0,0.34568 -2.41169,0.76075 -4.28435,0.73738 -1.06335,-0.0133 -2.6064,-0.23575 -3.42901,-0.4944 z m -41.04033,-3.37414 c -1.48203,-0.49414 -1.49784,-0.77162 -0.0206,-0.36142 2.89047,0.80261 4.58887,-0.002 4.58887,-2.17517 0,-0.82246 0.15326,-1.30033 0.52489,-1.63666 0.36956,-0.33445 0.47694,-0.66606 0.36285,-1.12062 -0.10992,-0.43794 0.0191,-0.89063 0.40115,-1.40736 0.32902,-0.44501 0.56319,-1.15755 0.56319,-1.71364 0,-0.52353 0.13534,-1.48936 0.30076,-2.14628 l 0.30075,-1.19439 -0.4565,-1.5077 c -0.48602,-1.60522 -0.47385,-2.97944 0.0279,-3.14397 0.16782,-0.055 0.62075,0.59062 1.00651,1.4348 0.38575,0.84418 1.07519,1.92155 1.53209,2.39414 l 0.83072,0.85927 -0.25503,0.72823 c -0.18509,0.52854 -0.56931,0.83707 -1.40116,1.12511 l -1.14615,0.39687 0.11989,1.25139 0.11989,1.25138 -0.5084,0.4601 c -0.38219,0.34587 -0.46913,0.66945 -0.35021,1.30335 l 0.15819,0.84326 -0.66876,0.52605 -0.66877,0.52605 v 1.18301 c 0,0.79619 -0.17931,1.41096 -0.54837,1.88015 l -0.54837,0.69714 -1.50215,-0.0163 c -0.82618,-0.009 -2.06959,-0.20552 -2.76313,-0.43676 z m 56.59283,-0.5391 c -0.47161,-1.62941 -0.80382,-5.2878 -0.81486,-8.97363 -0.007,-2.3525 -0.0385,-4.2517 -0.0698,-4.22045 -0.28327,0.2825 -0.94345,5.80858 -1.08967,9.12127 l -0.1827,4.13896 -0.97399,-1.48522 c -0.53569,-0.81687 -1.24314,-2.24562 -1.57211,-3.175 l -0.59812,-1.68978 0.01,-2.64584 0.01,-2.64583 0.60463,-1.68482 c 1.14499,-3.19055 3.99769,-7.393798 4.82984,-7.116416 0.38473,0.128244 1.92408,3.794746 2.46485,5.870916 0.2009,0.77129 0.50852,2.40099 0.68361,3.62154 l 0.31834,2.2192 -0.43403,2.11666 c -0.37409,1.82435 -2.53866,7.01146 -2.92587,7.01146 -0.0692,0 -0.18617,-0.20836 -0.25988,-0.46302 z M 36.653565,117.22432 c -0.854501,-1.35362 -1.502788,-2.8488 -2.013612,-4.64411 -0.471965,-1.65874 -0.478442,-6.12304 -0.01171,-8.06979 0.621612,-2.59275 2.443215,-6.87917 2.923446,-6.87917 0.549473,0 2.685894,2.80223 3.677308,4.82333 1.920121,3.91437 2.271603,7.45947 1.100303,11.09786 -0.446218,1.38608 -2.040315,4.21316 -2.553702,4.52891 -0.121216,0.0746 -0.23821,-1.3113 -0.259986,-3.07967 -0.03512,-2.8519 -0.733461,-9.36814 -1.036449,-9.67113 -0.06302,-0.063 -0.114583,1.81722 -0.114583,4.17832 0,4.06047 -0.334163,7.6428 -0.790377,8.47307 -0.152817,0.27812 -0.390041,0.0829 -0.92064,-0.75762 z m 55.829005,-9.24241 c -3.192943,-2.79407 -5.039514,-5.46858 -6.105491,-8.842964 -0.794211,-2.514101 -0.827507,-4.443224 -0.11328,-6.563372 l 0.538798,-1.599399 -0.801757,-0.913152 c -1.421756,-1.61929 -1.944125,-2.954712 -2.072868,-5.299231 -0.141384,-2.574719 0.327536,-4.304494 1.734675,-6.398953 2.728589,-4.061373 8.756253,-5.055848 11.679142,-1.926885 l 0.720558,0.771359 1.570389,-0.538094 c 2.025814,-0.694147 6.974914,-0.937304 9.838524,-0.483382 3.67681,0.582824 7.61626,2.498456 10.12041,4.921241 0.65484,0.633567 1.62611,1.333025 2.15836,1.554352 2.1173,0.880425 2.53461,2.449667 1.21119,4.554534 l -0.64168,1.020578 0.34547,1.5875 c 0.19002,0.873125 0.52874,2.420893 0.75273,3.439485 0.48238,2.193582 0.51358,3.452592 0.11399,4.598864 -0.31429,0.901581 -1.40749,1.629682 -2.40557,1.602172 l -0.60845,-0.01677 0.52917,-0.216584 c 0.29104,-0.119121 0.76729,-0.481596 1.05833,-0.805501 l 0.52917,-0.588917 -0.0144,-1.757416 c -0.008,-0.966578 -0.23326,-2.856212 -0.50076,-4.199186 l -0.48638,-2.441772 -1.05089,1.193873 c -1.44235,1.638606 -4.26906,3.031641 -6.13951,3.025627 l -0.80391,-0.0026 1.32292,-0.625409 c 1.55085,-0.733166 2.58868,-1.761238 3.16096,-3.131236 0.49738,-1.190679 0.51439,-1.415154 0.0802,-1.058091 -0.1819,0.149585 -1.01592,0.470437 -1.85337,0.713006 -1.80216,0.521993 -2.99445,0.427155 -1.38777,-0.110386 1.43767,-0.480997 2.44072,-1.224418 2.93086,-2.172253 l 0.40934,-0.79157 -1.2087,0.181256 c -0.66478,0.09969 -1.89257,0.08791 -2.72843,-0.02618 l -1.51974,-0.207434 1.44392,-0.225444 c 0.79416,-0.123994 2.10384,-0.531724 2.91042,-0.906066 l 1.4665,-0.680622 -1.97595,-0.933633 c -2.41037,-1.138902 -5.83688,-1.899327 -9.52028,-2.112778 -1.83433,-0.106298 -2.57279,-0.23132 -2.19401,-0.371442 0.49185,-0.181944 6.59441,-0.737743 8.53086,-0.776959 l 0.66146,-0.01339 -1.23855,-0.64495 c -1.49487,-0.778425 -4.53191,-1.613782 -6.69895,-1.842592 -1.62203,-0.171263 -5.99923,0.246954 -6.702208,0.640358 -0.275961,0.154436 -0.397461,0.717325 -0.41573,1.926013 l -0.02581,1.707804 -0.80001,1.293632 c -0.969403,1.567547 -2.544377,2.727982 -3.966675,2.922634 l -1.054148,0.144268 1.069279,-0.510073 c 3.21914,-1.535611 4.017906,-5.720846 1.532079,-8.027523 -1.093265,-1.014475 -1.758284,-1.289099 -3.121629,-1.289099 -2.36145,0 -4.545942,1.514925 -5.913619,4.101041 l -0.69963,1.322917 -0.0014,2.116667 c -0.0016,2.386908 0.363418,3.329725 1.917081,4.951677 l 0.941543,0.982928 -0.326975,1.091343 c -1.604857,5.356536 -0.134973,10.523449 4.833131,16.989339 0.417454,0.54331 0.692273,0.98784 0.610709,0.98784 -0.08156,0 -0.812186,-0.58096 -1.623604,-1.29101 z m -33.26334,0.27831 c -0.680933,-0.24338 -1.307529,-0.51348 -1.392436,-0.60023 -0.267116,-0.27289 3.536503,-1.8802 7.525289,-3.17998 2.110052,-0.68759 3.643695,-1.25968 3.408095,-1.27133 -0.918886,-0.0454 -5.285147,0.83539 -8.42242,1.69909 -1.811993,0.49884 -3.34264,0.85888 -3.401437,0.80008 -0.200022,-0.20002 1.594521,-2.47834 2.568782,-3.26127 3.286806,-2.641353 8.145177,-3.718287 12.858438,-2.850278 2.790551,0.513918 4.894792,1.154478 4.894792,1.490048 0,0.35442 -2.687774,2.97457 -4.287971,4.18009 -1.697275,1.27866 -3.481441,2.187 -5.743748,2.9242 -2.152754,0.70151 -6.142389,0.73618 -8.007384,0.0696 z m 82.72973,-0.13014 c -2.27985,-0.76107 -3.29781,-1.28444 -5.1297,-2.6374 -1.49008,-1.10051 -4.52759,-4.05635 -4.52759,-4.40586 0,-0.34607 3.46496,-1.347603 5.75468,-1.663369 5.22543,-0.720616 11.05043,1.284199 13.65956,4.701279 0.52727,0.69054 0.95867,1.35974 0.95867,1.48711 0,0.26355 -0.78967,0.10743 -2.97595,-0.58836 -2.14813,-0.68364 -6.11089,-1.50925 -8.13655,-1.69518 l -1.71979,-0.15786 2.91042,0.89491 c 4.85564,1.49304 8.86354,3.02555 8.86354,3.38917 0,0.53611 -2.44604,1.12241 -5.02708,1.20497 l -2.77813,0.0888 z m -29.36875,-1.55689 c -1.89454,-0.66045 -3.56458,-3.27084 -3.56929,-5.57904 -0.005,-2.246431 1.45664,-4.15665 3.17963,-4.15665 0.91831,0 2.10945,1.395602 2.10945,2.47155 0,0.508615 -0.0889,1.14285 -0.19758,1.40941 -0.14946,0.3666 -0.23002,0.23332 -0.33073,-0.54713 -0.0925,-0.716464 -0.35089,-1.193752 -0.84561,-1.56171 l -0.71246,-0.529909 -0.65299,0.427856 c -1.33881,0.877222 -1.55443,3.545233 -0.45991,5.690663 0.59536,1.167 0.9148,1.46591 2.31197,2.16337 1.11434,0.55627 0.56025,0.6971 -0.83248,0.21159 z m -63.632294,-0.55591 c 0,-0.0629 0.350674,-1.11234 0.779277,-2.33201 1.34337,-3.822785 2.899798,-10.136055 2.578165,-10.457688 -0.06539,-0.06539 -0.199137,0.214075 -0.297216,0.621034 -0.166412,0.690498 -0.839312,2.539756 -2.435437,6.693054 -0.818215,2.12908 -2.259196,5.02708 -2.499635,5.02708 -0.262382,0 -0.776058,-2.21531 -0.944589,-4.07369 -0.372955,-4.112562 2.307831,-9.916847 6.17017,-13.359293 0.829497,-0.739319 1.544669,-1.307723 1.589271,-1.263122 0.0446,0.0446 0.388524,0.905956 0.764272,1.914121 0.852304,2.286806 1.180231,6.783571 0.639474,8.768921 -0.936575,3.438563 -2.497821,5.878263 -4.791157,7.486943 -0.853927,0.599 -1.552595,1.03759 -1.552595,0.97465 z m 110.434314,-0.60777 c -2.23858,-1.49748 -3.80089,-3.52752 -4.8662,-6.323051 l -0.60496,-1.5875 -0.0238,-2.778125 c -0.0238,-2.782781 0.32393,-4.588784 1.33507,-6.934204 l 0.42296,-0.981078 1.18283,0.969243 c 2.65449,2.175154 5.48879,6.708254 6.1295,9.803333 0.56897,2.748582 0.28337,6.938302 -0.53442,7.839902 -0.18451,0.20341 -1.27822,-1.89316 -2.61286,-5.00865 -0.27398,-0.639574 -1.96976,-5.23972 -2.34084,-6.350004 -0.50761,-1.518802 -0.30389,0.150091 0.36362,2.978739 0.66848,2.832785 1.99496,6.950465 2.68415,8.332195 0.45299,0.90817 0.17812,0.91766 -1.1351,0.0392 z M 63.001954,96.506771 c 0.172878,-0.327422 2.052301,-2.680052 4.176497,-5.228068 2.124195,-2.548016 4.037406,-4.869734 4.25158,-5.159375 0.498701,-0.674425 -3.03766,2.59811 -5.284198,4.889976 -2.682649,2.736777 -5.281462,5.132846 -5.418514,4.995794 -0.25733,-0.25733 0.435011,-3.504225 1.103024,-5.172892 0.994006,-2.482984 3.427258,-5.638 5.572047,-7.224858 2.286416,-1.691644 6.002904,-3.532697 8.514608,-4.217918 1.081276,-0.294984 2.017363,-0.484928 2.080193,-0.422098 0.06283,0.06283 -0.02665,0.923255 -0.198839,1.912055 -0.924057,5.306327 -5.365439,11.950671 -9.579345,14.330778 -1.609747,0.909221 -4.224667,1.891919 -5.034321,1.891919 h -0.497055 z m 82.623166,0.435683 c -5.03976,-1.124068 -8.94022,-4.527254 -11.85447,-10.343142 -1.11462,-2.22441 -1.89753,-4.548148 -2.13408,-6.334116 l -0.17997,-1.358763 1.14514,0.224599 c 0.62982,0.123529 2.07484,0.576717 3.21115,1.007084 5.83368,2.209459 10.04491,6.170282 11.95454,11.243689 0.69703,1.85185 1.16042,4.661945 0.76876,4.661945 -0.12788,0 -2.66209,-2.411015 -5.63159,-5.357812 l -5.39909,-5.357812 1.61041,2.116667 c 0.88573,1.164166 2.62899,3.307291 3.87391,4.762499 1.24492,1.455209 2.62354,3.144615 3.0636,3.754238 l 0.80011,1.108404 -0.49592,-0.03736 c -0.27275,-0.02055 -0.60238,-0.0611 -0.7325,-0.09012 z"/>
</svg>
